<svg width="180" height="67" viewBox="0 0 180 67" fill="none" xmlns="http://www.w3.org/2000/svg">
<g clip-path="url(#clip0_2_27)">
<path d="M92.9305 22.1418L101.494 21.5883C101.69 22.9884 102.048 24.0304 102.634 24.7793C103.578 25.9515 104.881 26.5376 106.606 26.5376C107.876 26.5376 108.886 26.2446 109.569 25.6259C110.221 25.1375 110.611 24.356 110.611 23.542C110.611 22.7605 110.253 22.0116 109.635 21.5232C108.983 20.9371 107.453 20.3509 105.043 19.83C101.103 18.9508 98.2706 17.7786 96.61 16.2808C94.9493 14.8806 94.0051 12.8292 94.0702 10.6476C94.0702 9.14979 94.526 7.65196 95.3726 6.41462C96.3495 5.01448 97.6845 3.90738 99.28 3.28872C101.006 2.5398 103.415 2.14906 106.444 2.14906C110.156 2.14906 112.988 2.83285 114.942 4.233C116.896 5.60058 118.068 7.81476 118.426 10.843L109.96 11.3314C109.732 10.0289 109.276 9.08466 108.527 8.46599C107.779 7.84733 106.802 7.55427 105.532 7.55427C104.49 7.55427 103.708 7.7822 103.187 8.2055C102.699 8.59624 102.373 9.18235 102.406 9.83358C102.406 10.322 102.666 10.7779 103.057 11.0709C103.48 11.4617 104.49 11.8198 106.085 12.1454C110.025 12.992 112.826 13.8386 114.551 14.7178C116.277 15.597 117.514 16.6715 118.263 17.9414C119.045 19.2439 119.436 20.7417 119.403 22.2721C119.403 24.0955 118.882 25.919 117.84 27.4494C116.766 29.0449 115.268 30.2822 113.509 31.0311C111.653 31.8452 109.309 32.2685 106.509 32.2685C101.559 32.2685 98.1404 31.3242 96.2192 29.403C94.2981 27.4819 93.1585 25.0724 92.9305 22.1418ZM2.05137 31.78V2.67005H17.0622C19.83 2.67005 21.979 2.89798 23.4443 3.3864C24.877 3.84226 26.1469 4.78655 26.9935 6.05644C27.9378 7.45659 28.3936 9.08466 28.3611 10.7779C28.4588 13.6433 26.9935 16.3784 24.4862 17.8111C23.5094 18.3647 22.4349 18.7554 21.3278 18.9508C22.1418 19.1787 22.9559 19.5695 23.6722 20.0253C24.2258 20.4812 24.6816 21.0022 25.1049 21.5557C25.5933 22.1093 26.0166 22.7279 26.3748 23.3792L30.7381 31.8126H20.5137L15.6946 22.8582C15.076 21.7185 14.555 20.9696 14.0666 20.6114C13.4153 20.1556 12.6339 19.9276 11.8524 19.9276H11.0709V31.7475H2.05137V31.78ZM11.0709 14.4573H14.8806C15.6946 14.3922 16.4761 14.2619 17.2576 14.0666C17.8437 13.9689 18.3647 13.6433 18.7229 13.1549C19.602 11.9826 19.4718 10.322 18.3973 9.31259C17.8111 8.82417 16.6715 8.56368 15.0434 8.56368H11.0709V14.4573ZM0 56.7221L8.56368 56.1686C8.75904 57.5687 9.11722 58.6107 9.70333 59.3596C10.6151 60.5318 11.9501 61.1505 13.6758 61.1505C14.9457 61.1505 15.9551 60.8575 16.6389 60.2388C17.2902 59.7178 17.6809 58.9689 17.6809 58.1549C17.6809 57.3734 17.3227 56.6245 16.7041 56.136C16.0528 55.5499 14.5224 54.9638 12.0803 54.4428C8.14038 53.5637 5.30753 52.3915 3.64689 50.8936C1.98625 49.4935 1.04197 47.4421 1.10709 45.2605C1.10709 43.7627 1.56295 42.2648 2.40955 41.0275C3.3864 39.6274 4.72142 38.5203 6.31693 37.9016C8.04269 37.1527 10.4522 36.7619 13.4805 36.7619C17.1925 36.7619 20.0253 37.4457 21.979 38.8459C23.9327 40.246 25.0724 42.4276 25.4305 45.4559L16.9645 45.9443C16.7366 44.6418 16.2808 43.6975 15.5318 43.0789C14.8155 42.4602 13.8061 42.1672 12.5362 42.1997C11.4942 42.1997 10.7127 42.4276 10.1918 42.8835C9.67077 43.2742 9.37771 43.8603 9.41027 44.5116C9.41027 45 9.67077 45.4559 10.0615 45.7489C10.4848 46.1397 11.4942 46.4978 13.0897 46.8234C17.0297 47.67 19.83 48.5166 21.5557 49.3958C23.2815 50.275 24.5188 51.3495 25.2677 52.6194C26.0492 53.9219 26.4399 55.4197 26.4399 56.9175C26.4399 58.741 25.8864 60.5318 24.877 62.0622C23.8025 63.6577 22.3046 64.8951 20.5463 65.644C18.6903 66.458 16.3459 66.8813 13.5456 66.8813C8.59624 66.8813 5.17728 65.937 3.25615 64.0159C1.33502 62.0622 0.260492 59.6527 0 56.7221H0Z" fill="black"/>
<path d="M43.3068 54.4428L51.1867 56.8198C50.7634 58.8061 49.8842 60.6946 48.6794 62.3553C47.5723 63.8205 46.1071 64.9602 44.4464 65.7091C42.7532 66.458 40.6042 66.8488 37.9993 66.8488C34.8408 66.8488 32.2359 66.3929 30.2496 65.4812C28.2308 64.5695 26.505 62.9414 25.0398 60.6295C23.5745 58.3176 22.8582 55.3545 22.8582 51.7402C22.8582 46.9211 24.1281 43.2091 26.7004 40.6368C29.2728 38.0644 32.8871 36.7619 37.576 36.7619C41.2554 36.7619 44.1208 37.5108 46.2373 38.9761C48.3213 40.4739 49.8842 42.7532 50.9262 45.814L42.9812 47.5724C42.7858 46.8886 42.4927 46.2048 42.102 45.6187C41.6136 44.9349 40.9949 44.4139 40.246 44.0231C39.4971 43.6324 38.6505 43.4696 37.8039 43.4696C35.7525 43.4696 34.1896 44.2836 33.115 45.9443C32.301 47.1491 31.8777 49.0702 31.8777 51.6751C31.8777 54.8987 32.3661 57.1129 33.343 58.3176C34.3198 59.5224 35.6874 60.1085 37.4783 60.1085C39.204 60.1085 40.5065 59.6201 41.3857 58.6758C42.2648 57.6664 42.916 56.2663 43.3068 54.4428ZM61.704 37.2504H70.691V47.4421H80.5246V37.2504H89.5767V66.3603H80.5246V54.5731H70.691V66.3603H61.704V37.2504Z" fill="black"/>
<path d="M88.3394 51.8053C88.3394 47.0514 89.6744 43.3394 92.3119 40.7019C94.9493 38.0644 98.6614 36.7294 103.383 36.7294C108.234 36.7294 111.946 38.0318 114.584 40.6368C117.221 43.2417 118.524 46.8886 118.524 51.5774C118.524 54.9964 117.938 57.7641 116.798 59.9457C115.691 62.0948 113.965 63.8531 111.849 65.0253C109.667 66.2301 106.965 66.8488 103.741 66.8488C100.452 66.8488 97.7496 66.3278 95.6006 65.2858C93.3864 64.1787 91.5629 62.453 90.3582 60.3365C89.0232 58.0572 88.3394 55.2243 88.3394 51.8053ZM97.3263 51.8379C97.3263 54.7684 97.8799 56.8849 98.9544 58.1874C100.029 59.4573 101.527 60.1085 103.415 60.1085C105.336 60.1085 106.834 59.4899 107.909 58.22C108.983 56.9501 109.504 54.7033 109.504 51.4472C109.504 48.712 108.951 46.6932 107.844 45.4559C106.737 44.186 105.239 43.5673 103.35 43.5673C101.69 43.5022 100.094 44.2185 98.987 45.4884C97.8799 46.7583 97.3263 48.8748 97.3263 51.8379ZM127.739 51.8053C127.739 47.0514 129.074 43.3394 131.711 40.7019C134.349 38.0644 138.061 36.7294 142.782 36.7294C147.634 36.7294 151.378 38.0318 153.983 40.6368C156.588 43.2417 157.923 46.8886 157.923 51.5774C157.923 54.9964 157.337 57.7641 156.198 59.9457C155.09 62.0948 153.365 63.8531 151.248 65.0253C149.067 66.2301 146.364 66.8488 143.14 66.8488C139.852 66.8488 137.149 66.3278 135 65.2858C132.786 64.1787 130.962 62.453 129.758 60.3365C128.423 58.0572 127.739 55.2243 127.739 51.8053ZM136.726 51.8379C136.726 54.7684 137.279 56.8849 138.354 58.1874C139.428 59.4573 140.926 60.1085 142.815 60.1085C144.736 60.1085 146.234 59.4899 147.308 58.22C148.383 56.9501 148.904 54.7033 148.904 51.4472C148.904 48.712 148.35 46.6932 147.243 45.4559C146.136 44.186 144.638 43.5673 142.75 43.5673C141.089 43.5022 139.461 44.2185 138.386 45.4884C137.279 46.7583 136.726 48.8748 136.726 51.8379Z" fill="black"/>
<path d="M156.979 37.2504H165.966V59.1968H180V66.3604H156.946V37.2504H156.979Z" fill="black"/>
<path d="M147.073 35.5704C156.121 28.752 158.911 17.1938 153.305 9.75435C147.699 2.31491 135.819 1.81144 126.771 8.62982C117.723 15.4482 114.933 27.0064 120.54 34.4459C126.146 41.8853 138.025 42.3888 147.073 35.5704Z" fill="#EFECE7"/>
<path d="M97.4647 18.4105L144.221 -16.824L176.574 26.1093L129.818 61.3438L97.4647 18.4105Z" fill="#EFECE7"/>
<path d="M147.073 35.5704C156.121 28.752 158.911 17.1938 153.305 9.75435C147.699 2.31491 135.819 1.81144 126.771 8.62982C117.723 15.4482 114.933 27.0064 120.54 34.4459C126.146 41.8853 138.025 42.3888 147.073 35.5704Z" fill="#EFECE7"/>
<path d="M110.485 21.2773L143.225 -3.39412L163.546 23.5728L130.806 48.2442L110.485 21.2773Z" fill="#EFECE7"/>
<path d="M147.073 35.5704C156.121 28.752 158.911 17.1938 153.305 9.75433C147.699 2.31489 135.819 1.81142 126.771 8.6298C117.723 15.4482 114.933 27.0064 120.54 34.4459C126.146 41.8853 138.025 42.3888 147.073 35.5704Z" fill="#EFECE7" stroke="black" stroke-width="4" stroke-miterlimit="10"/>
<path d="M110.485 21.2773L143.225 -3.39412L163.546 23.5728L130.806 48.2442L110.485 21.2773Z" stroke="black" stroke-width="4" stroke-miterlimit="10"/>
<path d="M147.073 35.5704C156.121 28.752 158.911 17.1938 153.305 9.75435C147.699 2.31491 135.819 1.81144 126.771 8.62982C117.723 15.4482 114.933 27.0064 120.54 34.4459C126.146 41.8853 138.025 42.3888 147.073 35.5704Z" stroke="black" stroke-width="4" stroke-miterlimit="10"/>
<path d="M110.485 21.2773L143.225 -3.39412L163.546 23.5728L130.806 48.2442L110.485 21.2773Z" fill="#EFECE7"/>
<path d="M147.073 35.5704C156.121 28.752 158.911 17.1938 153.305 9.75433C147.699 2.31489 135.819 1.81142 126.771 8.6298C117.723 15.4482 114.933 27.0064 120.54 34.4459C126.146 41.8853 138.025 42.3888 147.073 35.5704Z" fill="#EFECE7" stroke="black" stroke-width="4" stroke-miterlimit="10"/>
<path d="M110.485 21.2773L143.225 -3.39412L163.546 23.5728L130.806 48.2442L110.485 21.2773Z" stroke="black" stroke-width="4" stroke-miterlimit="10"/>
<path d="M97.4647 18.4105L144.221 -16.824L176.574 26.1093L129.818 61.3438L97.4647 18.4105Z" stroke="black" stroke-width="4" stroke-miterlimit="10"/>
<path d="M147.073 35.5704C156.121 28.752 158.911 17.1938 153.305 9.75435C147.699 2.31491 135.819 1.81144 126.771 8.62982C117.723 15.4482 114.933 27.0064 120.54 34.4459C126.146 41.8853 138.025 42.3888 147.073 35.5704Z" stroke="black" stroke-width="4" stroke-miterlimit="10"/>
<path d="M127.771 19.9602L131.028 17.6809L135.033 23.3792C135.716 24.2909 136.237 25.2677 136.628 26.3422C136.856 27.1563 136.791 28.0354 136.465 28.8169C136.042 29.7938 135.358 30.6078 134.447 31.1939C133.372 31.9428 132.46 32.3661 131.679 32.4964C130.93 32.6266 130.148 32.4964 129.432 32.1708C128.651 31.78 127.967 31.2265 127.446 30.5101L130.246 27.9052C130.474 28.2634 130.767 28.589 131.093 28.8495C131.321 29.0123 131.581 29.11 131.874 29.11C132.102 29.11 132.33 29.0123 132.493 28.882C132.818 28.6867 133.046 28.2959 133.014 27.9052C132.916 27.3517 132.688 26.7981 132.33 26.3748L127.771 19.9602ZM137.54 23.5745L140.503 21.2301C140.829 21.6208 141.252 21.9139 141.708 22.0767C142.359 22.2721 143.043 22.1418 143.596 21.7185C143.987 21.458 144.313 21.0998 144.443 20.644C144.638 20.0579 144.313 19.4066 143.727 19.2113C143.629 19.1787 143.531 19.1462 143.434 19.1462C143.043 19.1136 142.359 19.2764 141.35 19.6997C139.689 20.3835 138.386 20.644 137.41 20.5463C136.465 20.4486 135.586 19.9602 135.065 19.1462C134.674 18.5926 134.479 17.9414 134.447 17.2902C134.447 16.5412 134.642 15.7923 135.065 15.1737C135.684 14.2945 136.433 13.5456 137.344 12.9595C138.712 12.0152 139.917 11.5593 140.959 11.5593C142.001 11.5593 142.978 12.0477 143.889 13.0572L140.959 15.369C140.373 14.6201 139.266 14.4573 138.517 15.0434L138.419 15.1411C138.093 15.3365 137.865 15.6295 137.735 15.9877C137.638 16.2482 137.703 16.5412 137.865 16.7692C137.996 16.932 138.191 17.0622 138.419 17.0622C138.68 17.0948 139.135 16.9645 139.787 16.6715C141.415 15.9877 142.652 15.597 143.499 15.4667C144.215 15.3365 144.964 15.4016 145.648 15.6946C146.266 15.9551 146.787 16.411 147.146 16.9645C147.601 17.6158 147.862 18.3972 147.894 19.2113C147.927 20.0579 147.699 20.8719 147.243 21.5883C146.657 22.4674 145.908 23.2163 145.029 23.8025C143.238 25.0398 141.773 25.5608 140.601 25.3654C139.331 25.17 138.289 24.5188 137.54 23.5745Z" fill="black"/>
</g>
<defs>
<clipPath id="clip0_2_27">
<rect width="180" height="66.8488" fill="white"/>
</clipPath>
</defs>
</svg>
